<svg xmlns:x="http://ns.adobe.com/Extensibility/1.0/" xmlns:i="http://ns.adobe.com/AdobeIllustrator/10.0/" xmlns:graph="http://ns.adobe.com/Graphs/1.0/" xmlns="http://www.w3.org/2000/svg" xmlns:xlink="http://www.w3.org/1999/xlink" xmlns:a="http://ns.adobe.com/AdobeSVGViewerExtensions/3.0/" version="1.0" x="0px" y="0px" viewBox="0 0 100 125" enable-background="new 0 0 100 100" xml:space="preserve"><metadata><sfw xmlns="http://ns.adobe.com/SaveForWeb/1.0/"><slices/><sliceSourceBounds height="95" width="95.699" x="2.151" y="2.5" bottomLeftOrigin="true"/><optimizationSettings><targetSettings targetSettingsID="0" fileFormat="PNG8Format"><PNG8Format transparency="true" ditherPercent="88" ditherAlgorithm="diffusion" reductionAlgorithm="selective" rolloverMasterPalette="false" autoReduce="false" numColors="4" webShiftPercent="0" matteColor="#FFFFFF" noMatteColor="false" interlaced="false"><colorTable isExact="false"/><lockedColors/><colorShiftEntries/></PNG8Format></targetSettings></optimizationSettings></sfw></metadata><g><path d="M97.85,32.617L67.732,2.5L23.093,47.14l1.944,5.831c-4.665,1.57-9.287,4.463-13.194,8.369   C1.518,71.666-0.95,85.999,6.342,93.292c2.753,2.752,6.572,4.208,11.045,4.208c0,0,0,0,0.001,0c7.009,0,14.824-3.63,20.905-9.71   c3.64-3.641,6.432-7.91,8.075-12.35l0.154-0.414l6.688,2.23L97.85,32.617z M39.35,60.282c0.738,0.739,1.348,1.602,1.831,2.562   c-0.904-0.173-1.736-0.609-2.401-1.274c-0.772-0.772-1.211-1.752-1.324-2.761C38.146,59.224,38.781,59.714,39.35,60.282z    M46.481,59.689c-0.683-1.452-1.582-2.744-2.688-3.851c-0.81-0.81-1.713-1.504-2.697-2.085c0.313-0.066,0.635-0.102,0.962-0.102   c1.239,0,2.404,0.482,3.28,1.358c0.875,0.876,1.358,2.04,1.358,3.279C46.697,58.772,46.623,59.242,46.481,59.689z M41.565,73.801   c-1.183,3.818-3.471,7.5-6.616,10.646c-4.683,4.683-10.674,7.479-16.025,7.479c-3.311,0-6.124-1.064-8.138-3.078   c-2.613-2.612-3.611-6.546-2.812-11.074c0.812-4.601,3.374-9.249,7.213-13.089c3.386-3.386,7.456-5.778,11.473-6.847l3.964,11.891   l11.062,3.687L41.565,73.801z M31.491,68.859l-3.759-11.276c1.177-0.245,2.344-0.378,3.481-0.378c1.886,0,3.61,0.347,5.118,1.017   c-0.018,1.491,0.538,2.988,1.674,4.124c0.998,0.998,2.301,1.577,3.697,1.662l0.043,0.105l0.187-0.094   c0.043,0.001,0.085,0.006,0.128,0.006c1.532,0,2.973-0.596,4.056-1.68c0.225-0.225,0.423-0.468,0.605-0.721l0.451-0.227   l-0.11-0.305c0.477-0.847,0.734-1.805,0.734-2.804c0-1.532-0.596-2.973-1.68-4.056c-1.083-1.083-2.524-1.68-4.056-1.68   c-0.813,0-1.599,0.173-2.321,0.492c-2.062-0.933-4.417-1.417-6.989-1.417c-2.17,0-4.417,0.349-6.665,1.009l-1.734-5.203   L67.732,4.053l28.564,28.564L52.914,76L31.491,68.859z"/><rect x="37.502" y="46.738" transform="matrix(-0.7071 -0.7071 0.7071 -0.7071 57.1475 118.2451)" width="31.121" height="1.097"/><rect x="42.454" y="38.645" transform="matrix(-0.7071 -0.7071 0.7071 -0.7071 70.428 112.7446)" width="32.218" height="6.282"/><rect x="48.505" y="35.736" transform="matrix(-0.7071 -0.7071 0.7071 -0.7071 83.7101 107.2421)" width="31.12" height="1.097"/><rect x="52.172" y="32.068" transform="matrix(-0.7071 -0.7071 0.7071 -0.7071 92.5638 103.5746)" width="31.121" height="1.098"/><rect x="55.839" y="28.401" transform="matrix(-0.7071 -0.7071 0.7071 -0.7071 101.4167 99.9076)" width="31.121" height="1.098"/><rect x="73.76" y="7.339" transform="matrix(0.7071 -0.7071 0.7071 0.7071 5.9436 61.2457)" width="6.284" height="32.218"/></g><text x="0" y="115" fill="#000000" font-size="5px" font-weight="bold" font-family="'Helvetica Neue', Helvetica, Arial-Unicode, Arial, Sans-serif"></text><text x="0" y="120" fill="#000000" font-size="5px" font-weight="bold" font-family="'Helvetica Neue', Helvetica, Arial-Unicode, Arial, Sans-serif"></text></svg>