<svg xmlns="http://www.w3.org/2000/svg" xmlns:xlink="http://www.w3.org/1999/xlink" version="1.1" x="0px" y="0px" viewBox="0 0 100 125" enable-background="new 0 0 100 100" xml:space="preserve"><g><path d="M50,8C26.842,8,8,26.841,8,50c0,23.158,18.842,42,42,42s42-18.842,42-42C92,26.841,73.158,8,50,8z M50,88   c-20.953,0-38-17.381-38-38.333C12,43.421,13.543,38,16.225,32h9.861C27.75,32,28,33.344,28,34.666v2v2v17.957   c0,0.012,0,0.023,0,0.035c0,5.426,4.527,7.865,5.07,8.225c-1.816,1.604-2.863,3.924-2.863,6.533c0,4.824,3.988,8.75,8.812,8.75   s8.781-4.26,8.781-9.084c0-1.752-0.498-3.082-1.391-5.082h9.344c-0.893,2-1.422,3.33-1.422,5.082c0,4.824,3.926,8.918,8.75,8.918   s8.75-3.656,8.75-8.48S67.906,63,63.082,63C63.062,63,63,63,63,63H40c-4.812,0-7.562-2.719-7.562-5h34.73   C72.045,58,72,56.467,72,52.666v-16C72,35.562,72.105,34,71,34H32.031c0-3-1.816-6-6.914-6h-6.541   C25.42,18,36.949,11.667,50,11.667c20.953,0,38,17.214,38,38.167S70.953,88,50,88z M32,46h36v6.666C68,53.971,67.646,54,67.168,54   H32V46z M68,42H32v-4h36V42z M39.082,66.666c2.619,0,4.75,2.131,4.75,4.75s-2.131,4.75-4.75,4.75s-4.75-2.131-4.75-4.75   S36.463,66.666,39.082,66.666z M63.082,66.666c2.619,0,4.75,2.131,4.75,4.75s-2.131,4.75-4.75,4.75s-4.75-2.131-4.75-4.75   S60.463,66.666,63.082,66.666z"/></g><text x="0" y="115" fill="#000000" font-size="5px" font-weight="bold" font-family="'Helvetica Neue', Helvetica, Arial-Unicode, Arial, Sans-serif"></text><text x="0" y="120" fill="#000000" font-size="5px" font-weight="bold" font-family="'Helvetica Neue', Helvetica, Arial-Unicode, Arial, Sans-serif"></text></svg>